# xmcd
# 
# Track frame offsets:
#     150
#     25017
#     40764
#     54037
#     70449
#     88937
#     94911
#     109707
#     132976
#     148444
#     155785
#     174959
#     199358
# 
# Disc length: 2868
# 
# Revision: 2
# Processed by: cddbd v1.5.2PL0 Copyright (c) Steve Scherf et al.
# Submitted via: fre:ac v1.0.17
# 
DISCID=ba0b320d
DTITLE=Anna Aaron - Dogs In Spirit
DYEAR=2011
DGENRE=Rock
TTITLE0=Elijah's Chant
TTITLE1=Sea Monsters
TTITLE2=Where Are You David
TTITLE3=The Drainout [feat. Erik Truffaz]
TTITLE4=Siren
TTITLE5=The Passion
TTITLE6=Queen of Sound
TTITLE7=King of the Dogs
TTITLE8=Joanna
TTITLE9=Since I Met You My Peace Is Gone
TTITLE10=In the Devil's Camp
TTITLE11=Fire Over The Forbidden Mountain
TTITLE12=Sunshine on Aimée
EXTD=
EXTT0=
EXTT1=
EXTT2=
EXTT3=
EXTT4=
EXTT5=
EXTT6=
EXTT7=
EXTT8=
EXTT9=
EXTT10=
EXTT11=
EXTT12=
PLAYORDER=
